<svg width="26" height="26" viewBox="0 0 26 26" fill="none" xmlns="http://www.w3.org/2000/svg">
<path d="M16.6 1C13.348 1 10.54 2.848 9.136 5.536C7.59538 6.33865 6.33865 7.59538 5.536 9.136C4.16942 9.84608 3.02386 10.9175 2.22406 12.2336C1.42425 13.5497 1.00087 15.06 1 16.6C1 21.244 4.756 25 9.4 25C12.652 25 15.46 23.152 16.864 20.464C18.4046 19.6613 19.6613 18.4046 20.464 16.864C21.8306 16.1539 22.9761 15.0825 23.7759 13.7664C24.5757 12.4503 24.9991 10.94 25 9.4C25 4.756 21.244 1 16.6 1ZM9.4 22.6C8.2861 22.5991 7.19442 22.2883 6.24711 21.7023C5.2998 21.1163 4.53424 20.2783 4.03609 19.282C3.53793 18.2857 3.32684 17.1704 3.42644 16.0609C3.52603 14.9515 3.93237 13.8917 4.6 13C4.6 17.644 8.356 21.4 13 21.4C11.992 22.156 10.744 22.6 9.4 22.6ZM13 19C11.8861 18.9991 10.7944 18.6883 9.84711 18.1023C8.8998 17.5163 8.13424 16.6783 7.63609 15.682C7.13793 14.6857 6.92684 13.5704 7.02644 12.4609C7.12603 11.3515 7.53237 10.2917 8.2 9.4C8.2 14.032 11.956 17.788 16.6 17.8C15.592 18.556 14.344 19 13 19ZM18.64 15.04C18.004 15.268 17.32 15.4 16.6 15.4C13.288 15.4 10.6 12.712 10.6 9.4C10.6 8.68 10.732 7.996 10.96 7.36C11.596 7.132 12.28 7 13 7C16.312 7 19 9.688 19 13C19 13.72 18.868 14.404 18.64 15.04ZM21.4 13C21.4 8.368 17.644 4.612 13 4.6C14.156 3.738 15.5837 3.32097 17.0219 3.42518C18.4602 3.5294 19.8128 4.1479 20.8325 5.16755C21.8521 6.1872 22.4706 7.53985 22.5748 8.97808C22.679 10.4163 22.262 11.844 21.4 13Z" fill="black"/>
</svg>
