<svg width="26" height="26" viewBox="0 0 26 26" fill="none" xmlns="http://www.w3.org/2000/svg">
<path d="M8.22999 0H12.443V8.42613H8.23004C2.67406 8.20894 2.61795 0.228109 8.22999 0ZM8.22999 17.2127H12.443V8.78653H8.23004C2.618 9.01463 2.67406 16.9955 8.22999 17.2127ZM17.0165 0H12.8034V8.42613H17.0165C22.6472 8.12479 22.5771 0.171996 17.0165 0ZM12.443 21.7862V17.5731H8.23004C4.79204 17.5731 2.618 21.6039 5.00903 24.499C7.2887 27.3686 12.4431 25.9379 12.4431 21.7862M21.2382 12.9996C21.2382 9.76178 17.709 7.72723 14.9009 9.34613C12.0929 10.965 12.0928 15.0342 14.9009 16.6531C17.709 18.272 21.2382 16.2374 21.2382 12.9996Z" fill="black"/>
</svg>
