<svg width="26" height="26" viewBox="0 0 26 26" fill="none" xmlns="http://www.w3.org/2000/svg">
<g clip-path="url(#clip0_675_4156)">
<path fill-rule="evenodd" clip-rule="evenodd" d="M19.8589 3.50117C22.4238 4.25828 24.1529 7.03006 25.3018 12.2232C25.883 14.8487 26.0975 16.8748 25.9583 18.4172C25.7752 20.4286 24.9735 21.6899 23.5749 22.167C22.6871 22.4719 21.7727 22.3539 20.8578 21.822C20.1699 21.4218 19.4803 20.786 18.7507 19.8773C17.5898 18.4318 16.2459 17.9915 12.9985 17.9915C9.36275 17.9915 8.18784 18.6262 7.1841 19.8773C6.29574 20.9826 4.9957 22.3327 3.37445 22.3327C3.03048 22.3316 2.68915 22.2727 2.36475 22.1584C-0.00186353 21.3395 -0.618841 17.8101 0.634614 12.22C1.80032 7.02518 3.52829 4.25449 6.07961 3.50062C6.63892 3.34339 7.21738 3.26465 7.79837 3.26666C8.53885 3.26666 9.18508 3.44755 9.86977 3.63981C10.6958 3.87106 11.6329 4.13318 12.9985 4.13318C14.3641 4.13318 15.3007 3.87052 16.1251 3.63927C16.8093 3.44755 17.456 3.26666 18.1987 3.26666C18.7605 3.26406 19.3198 3.34305 19.8589 3.50117ZM8.66507 11.9318H10.3985C10.6283 11.9318 10.8488 11.8405 11.0113 11.678C11.1738 11.5155 11.2651 11.2951 11.2651 11.0653C11.2651 10.8355 11.1738 10.6151 11.0113 10.4526C10.8488 10.2901 10.6283 10.1988 10.3985 10.1988H8.66507V8.46577C8.66507 8.23595 8.57375 8.01555 8.41122 7.85305C8.24868 7.69054 8.02823 7.59925 7.79837 7.59925C7.56851 7.59925 7.34806 7.69054 7.18553 7.85305C7.02299 8.01555 6.93168 8.23595 6.93168 8.46577V10.1988H5.19829C4.96843 10.1988 4.74799 10.2901 4.58545 10.4526C4.42291 10.6151 4.3316 10.8355 4.3316 11.0653C4.3316 11.2951 4.42291 11.5155 4.58545 11.678C4.74799 11.8405 4.96843 11.9318 5.19829 11.9318H6.93168V13.6649C6.93168 13.8947 7.02299 14.1151 7.18553 14.2776C7.34806 14.4401 7.56851 14.5314 7.79837 14.5314C8.02823 14.5314 8.24868 14.4401 8.41122 14.2776C8.57375 14.1151 8.66507 13.8947 8.66507 13.6649V11.9318ZM19.9319 11.066C19.9319 12.0232 19.1559 12.7992 18.1986 12.7992C17.2413 12.7992 16.4653 12.0232 16.4653 11.066C16.4653 10.1087 17.2413 9.33267 18.1986 9.33267C19.1559 9.33267 19.9319 10.1087 19.9319 11.066ZM21.6652 11.066C21.6652 12.9805 20.1131 14.5325 18.1986 14.5325C16.2841 14.5325 14.732 12.9805 14.732 11.066C14.732 9.15142 16.2841 7.59938 18.1986 7.59938C20.1131 7.59938 21.6652 9.15142 21.6652 11.066Z" fill="black"/>
</g>
<defs>
<clipPath id="clip0_675_4156">
<rect width="26" height="26" fill="white"/>
</clipPath>
</defs>
</svg>
