<svg width="26" height="26" viewBox="0 0 26 26" fill="none" xmlns="http://www.w3.org/2000/svg">
<path d="M8.43054 5.1138L5.57374 6.71361L7.17355 3.8568L5.57374 1L8.43054 2.59981L11.2873 1L9.68754 3.8568L11.2873 6.71361L8.43054 5.1138ZM22.1432 16.3125L25 14.7127L23.4002 17.5695L25 20.4263L22.1432 18.8264L19.2864 20.4263L20.8862 17.5695L19.2864 14.7127L22.1432 16.3125ZM25 1L23.4002 3.8568L25 6.71361L22.1432 5.1138L19.2864 6.71361L20.8862 3.8568L19.2864 1L22.1432 2.59981L25 1ZM15.104 13.3185L17.8923 10.5303L15.4697 8.10773L12.6815 10.896L15.104 13.3185ZM16.281 7.04499L18.955 9.71896C19.4007 10.1418 19.4007 10.8845 18.955 11.3302L5.61945 24.6658C5.17379 25.1114 4.43102 25.1114 4.00821 24.6658L1.33425 21.9918C0.888585 21.569 0.888585 20.8262 1.33425 20.3805L14.6698 7.04499C15.1155 6.59933 15.8582 6.59933 16.281 7.04499Z" fill="black"/>
</svg>
