<svg width="26" height="26" viewBox="0 0 26 26" fill="none" xmlns="http://www.w3.org/2000/svg">
<g clip-path="url(#clip0_803_4152)">
<path d="M11.4075 11.2992C11.2992 10.9633 11.2017 10.6383 11.0933 10.3025C10.985 9.96667 10.8875 9.6525 10.8008 9.33833C10.7142 9.035 10.6383 8.75333 10.5625 8.49333H10.5408C10.4433 8.95917 10.3242 9.425 10.1725 9.89083C10.01 10.4108 9.8475 10.9525 9.67417 11.4942C9.5225 12.0467 9.36 12.5558 9.1975 13.0108H11.9492C11.8842 12.7823 11.7975 12.5125 11.7 12.2297C11.6025 11.9383 11.505 11.6242 11.4075 11.2992ZM21.3958 0H4.60417C2.05833 0 0 2.05833 0 4.60417V20.7458C0 23.2917 2.05833 25.35 4.60417 25.35H21.3958C23.9417 25.35 26 23.2917 26 20.7458V4.60417C26 2.05833 23.9417 0 21.3958 0ZM15.925 17.9075H13.6598C13.585 17.9183 13.5092 17.8642 13.4875 17.7883L12.5992 15.21H8.56917L7.74583 17.7558C7.72417 17.8533 7.6375 17.9183 7.54 17.9086H5.50333C5.38417 17.9086 5.35167 17.8425 5.38417 17.7136L8.8725 7.67C8.905 7.56167 8.9375 7.4425 8.98083 7.3125C9.02417 7.085 9.04583 6.84667 9.04583 6.60833C9.035 6.55417 9.07833 6.5 9.1325 6.48917H11.9383C12.025 6.48917 12.0683 6.52167 12.0792 6.57583L16.0333 17.7342C16.0658 17.8523 16.0333 17.9075 15.925 17.9075ZM19.6083 17.745C19.6083 17.8642 19.5661 17.9183 19.4686 17.9183H17.3442C17.2358 17.9183 17.1817 17.8523 17.1817 17.745V9.40333C17.1817 9.295 17.2261 9.25167 17.3236 9.25167H19.4686C19.5661 9.25167 19.6083 9.30583 19.6083 9.40333V17.745ZM19.3819 7.9625C19.254 8.09244 19.0997 8.19349 18.9295 8.25889C18.7593 8.32429 18.577 8.35251 18.395 8.34167C18.0375 8.3525 17.6908 8.21167 17.4298 7.9625C17.1815 7.69111 17.0494 7.33341 17.0614 6.96583C17.0506 6.5975 17.1914 6.25083 17.4503 6.00167C17.7125 5.7525 18.0592 5.6225 18.4167 5.6225C18.8403 5.6225 19.1631 5.7525 19.4025 6.00167C19.6408 6.26167 19.7708 6.60833 19.76 6.96583C19.7708 7.33417 19.6408 7.69167 19.3819 7.9625Z" fill="black"/>
</g>
<defs>
<clipPath id="clip0_803_4152">
<rect width="26" height="26" fill="white"/>
</clipPath>
</defs>
</svg>
