<?xml version="1.0" encoding="utf-8"?>
<!-- Generator: Adobe Illustrator 27.2.0, SVG Export Plug-In . SVG Version: 6.00 Build 0)  -->
<svg version="1.1" id="Layer_1" xmlns="http://www.w3.org/2000/svg" xmlns:xlink="http://www.w3.org/1999/xlink" x="0px" y="0px"
	 viewBox="0 0 24 24" style="enable-background:new 0 0 24 24;" xml:space="preserve">
<path d="M12.2,7.4H4.1C3.6,7.4,3.1,7.7,2.7,8C2.3,8.4,2.1,8.9,2.1,9.4v4.1c0,0.6,0.2,1.1,0.6,1.4c0.4,0.4,0.9,0.6,1.4,0.6h1v4.1
	c0,0.2,0.1,0.5,0.3,0.7c0.2,0.2,0.4,0.3,0.7,0.3h2.1c0.2,0,0.5-0.1,0.7-0.3c0.2-0.2,0.3-0.4,0.3-0.7v-4.1h3.1l5.1,4.1V3.3L12.2,7.4z
	 M21.9,11.5c0,1.7-1,3.3-2.6,4.1V7.4C20.9,8.2,21.9,9.8,21.9,11.5z"/>
</svg>
