<svg width="26" height="26" viewBox="0 0 26 26" fill="none" xmlns="http://www.w3.org/2000/svg">
<g clip-path="url(#clip0_803_4150)">
<path d="M10.6708 8.79667C10.27 8.63417 9.83667 8.56917 9.3925 8.58C9.11083 8.58 8.86167 8.58 8.65583 8.59083C8.43917 8.58 8.2875 8.59083 8.21167 8.60167V12.2417C8.36333 12.2525 8.50417 12.2633 8.63417 12.2633H9.20833C9.63083 12.2633 10.0533 12.1983 10.4542 12.0683C10.8008 11.9708 11.1042 11.765 11.3425 11.4942C11.57 11.2233 11.6783 10.855 11.6783 10.3783C11.6892 10.0425 11.6025 9.70667 11.4292 9.41417C11.2485 9.13289 10.9829 8.91657 10.6708 8.79667ZM21.3958 0H4.60417C2.05833 0 0 2.05833 0 4.60417V20.7448C0 23.2906 2.05833 25.3489 4.60417 25.3489H21.3958C23.9417 25.3489 26 23.2906 26 20.7448V4.60417C26 2.05833 23.9417 0 21.3958 0ZM13.3889 12.6208C12.9567 13.2275 12.35 13.6825 11.6458 13.9425C10.9092 14.2133 10.0967 14.3108 9.20833 14.3108C8.94833 14.3108 8.775 14.3108 8.66667 14.3C8.55833 14.2892 8.40667 14.2892 8.20083 14.2892V17.7656C8.21167 17.8414 8.1575 17.9075 8.08167 17.9183H5.98C5.89333 17.9183 5.85 17.8739 5.85 17.7764V6.63C5.85 6.55417 5.8825 6.51083 5.95833 6.51083C6.1425 6.51083 6.31583 6.51083 6.565 6.5C6.825 6.48917 7.09583 6.48917 7.38833 6.47833C7.68083 6.4675 7.995 6.4675 8.33083 6.45667C8.66667 6.44583 8.99167 6.44583 9.31667 6.44583C10.205 6.44583 10.9417 6.55417 11.5483 6.78167C12.09 6.96583 12.5883 7.26917 13 7.67C13.3467 8.01667 13.6175 8.43917 13.7908 8.905C13.9523 9.36 14.0389 9.82583 14.0389 10.3133C14.0404 11.245 13.8237 12.0142 13.3889 12.6208ZM21.0708 16.835C20.7675 17.2683 20.3439 17.6031 19.8575 17.8003C19.3267 18.0267 18.6767 18.1448 17.8956 18.1448C17.3983 18.1448 16.9098 18.1025 16.4233 18.005C16.0442 17.9389 15.665 17.8208 15.3183 17.6583C15.2425 17.6161 15.1873 17.5403 15.1981 17.4536V15.5686C15.1981 15.5372 15.21 15.4928 15.2425 15.4711C15.2739 15.4494 15.3075 15.4602 15.34 15.4819C15.7625 15.7311 16.2067 15.9055 16.6833 16.0128C17.0939 16.1211 17.5273 16.1753 17.9617 16.1753C18.3733 16.1753 18.6658 16.12 18.8608 16.0225C19.0342 15.9467 19.1533 15.7625 19.1533 15.5675C19.1533 15.4148 19.0667 15.275 18.8933 15.1342C18.72 14.9944 18.3636 14.8319 17.8328 14.6239C17.2803 14.4289 16.7722 14.1689 16.2944 13.845C15.9548 13.6029 15.6732 13.2884 15.47 12.9242C15.2979 12.5814 15.2127 12.2015 15.2219 11.8181C15.2219 11.3522 15.3519 10.9081 15.5913 10.5072C15.8622 10.0739 16.2619 9.72725 16.7278 9.51058C17.2358 9.25167 17.875 9.1325 18.6442 9.1325C19.0883 9.1325 19.5433 9.165 19.9875 9.23C20.3125 9.27333 20.6267 9.36 20.9192 9.47917C20.9614 9.49 21.0058 9.53333 21.0275 9.57667C21.0383 9.62 21.0492 9.66333 21.0492 9.70667V11.4725C21.0492 11.5158 21.0275 11.5592 20.995 11.5808C20.8975 11.6025 20.8433 11.6025 20.8 11.5808C20.475 11.4075 20.1283 11.2883 19.76 11.2125C19.3592 11.1258 18.9583 11.0717 18.5467 11.0717C18.33 11.0608 18.1025 11.0933 17.8956 11.1475C17.7558 11.18 17.6356 11.2558 17.5598 11.3642C17.5056 11.4508 17.4731 11.5592 17.4731 11.6567C17.4731 11.7542 17.5164 11.8517 17.5825 11.9383C17.68 12.0575 17.8089 12.155 17.9508 12.2308C18.1989 12.3608 18.46 12.48 18.7189 12.5883C19.305 12.7833 19.8683 13.0542 20.3883 13.3792C20.7458 13.6056 21.0383 13.91 21.2431 14.2783C21.4164 14.6228 21.5031 15.0042 21.4923 15.3931C21.5042 15.9033 21.3525 16.4114 21.0708 16.835Z" fill="black"/>
</g>
<defs>
<clipPath id="clip0_803_4150">
<rect width="26" height="26" fill="white"/>
</clipPath>
</defs>
</svg>
