<svg width="26" height="26" viewBox="0 0 26 26" fill="none" xmlns="http://www.w3.org/2000/svg">
<path d="M13.0027 17.2C11.8576 17.2 10.7593 16.7575 9.94956 15.9698C9.13981 15.1822 8.6849 14.1139 8.6849 13C8.6849 11.8861 9.13981 10.8178 9.94956 10.0302C10.7593 9.2425 11.8576 8.8 13.0027 8.8C14.1479 8.8 15.2461 9.2425 16.0559 10.0302C16.8656 10.8178 17.3205 11.8861 17.3205 13C17.3205 14.1139 16.8656 15.1822 16.0559 15.9698C15.2461 16.7575 14.1479 17.2 13.0027 17.2ZM22.1688 14.164C22.2182 13.78 22.2552 13.396 22.2552 13C22.2552 12.604 22.2182 12.208 22.1688 11.8L24.7719 9.844C25.0063 9.664 25.068 9.34 24.9199 9.076L22.4526 4.924C22.3045 4.66 21.9715 4.552 21.7001 4.66L18.6282 5.86C17.9867 5.392 17.3205 4.984 16.5433 4.684L16.0869 1.504C16.0618 1.36266 15.9861 1.23451 15.8732 1.14226C15.7603 1.05001 15.6175 0.999616 15.4701 1H10.5354C10.227 1 9.96791 1.216 9.91856 1.504L9.46211 4.684C8.6849 4.984 8.01872 5.392 7.37722 5.86L4.30539 4.66C4.03399 4.552 3.7009 4.66 3.55286 4.924L1.08553 9.076C0.925156 9.34 0.999176 9.664 1.23357 9.844L3.8366 11.8C3.78726 12.208 3.75025 12.604 3.75025 13C3.75025 13.396 3.78726 13.78 3.8366 14.164L1.23357 16.156C0.999176 16.336 0.925156 16.66 1.08553 16.924L3.55286 21.076C3.7009 21.34 4.03399 21.436 4.30539 21.34L7.37722 20.128C8.01872 20.608 8.6849 21.016 9.46211 21.316L9.91856 24.496C9.96791 24.784 10.227 25 10.5354 25H15.4701C15.7785 25 16.0375 24.784 16.0869 24.496L16.5433 21.316C17.3205 21.004 17.9867 20.608 18.6282 20.128L21.7001 21.34C21.9715 21.436 22.3045 21.34 22.4526 21.076L24.9199 16.924C25.068 16.66 25.0063 16.336 24.7719 16.156L22.1688 14.164Z" fill="black"/>
</svg>
