<?xml version="1.0" encoding="utf-8"?>
<!-- Generator: Adobe Illustrator 27.2.0, SVG Export Plug-In . SVG Version: 6.00 Build 0)  -->
<svg version="1.1" id="Layer_1" xmlns="http://www.w3.org/2000/svg" xmlns:xlink="http://www.w3.org/1999/xlink" x="0px" y="0px"
	 viewBox="0 0 24 24" style="enable-background:new 0 0 24 24;" xml:space="preserve">
<path d="M22.4,5.5c-0.8,0.3-1.6,0.6-2.4,0.7c0.9-0.5,1.6-1.4,1.9-2.3c-0.9,0.5-1.7,0.9-2.7,1c-0.8-0.9-1.9-1.4-3.1-1.4
	c-2.3,0-4.3,1.9-4.3,4.3c0,0.3,0,0.7,0.1,1C8.3,8.6,5.1,6.9,3.1,4.3C2.7,5,2.4,5.6,2.4,6.4c0,1.5,0.8,2.8,1.9,3.6
	C3.7,10,3,9.8,2.4,9.5l0,0c0,2.1,1.5,3.8,3.4,4.2c-0.6,0.2-1.3,0.2-1.9,0.1c0.3,0.9,0.8,1.6,1.5,2.1c0.7,0.5,1.6,0.9,2.4,0.9
	c-1.5,1.2-3.4,1.8-5.3,1.8c-0.3,0-0.7,0-1-0.1c1.9,1.2,4.2,1.9,6.5,1.9c7.8,0,12.2-6.5,12.2-12.2c0-0.2,0-0.3,0-0.5
	C21.1,7.1,21.8,6.3,22.4,5.5z"/>
</svg>
