<svg width="26" height="26" viewBox="0 0 26 26" fill="none" xmlns="http://www.w3.org/2000/svg">
<path d="M20.3333 13C19.8029 13 19.2942 12.7893 18.9191 12.4142C18.544 12.0391 18.3333 11.5304 18.3333 11C18.3333 10.4696 18.544 9.96086 18.9191 9.58579C19.2942 9.21071 19.8029 9 20.3333 9C20.8638 9 21.3725 9.21071 21.7475 9.58579C22.1226 9.96086 22.3333 10.4696 22.3333 11C22.3333 11.5304 22.1226 12.0391 21.7475 12.4142C21.3725 12.7893 20.8638 13 20.3333 13ZM16.3333 7.66667C15.8029 7.66667 15.2942 7.45595 14.9191 7.08088C14.544 6.70581 14.3333 6.1971 14.3333 5.66667C14.3333 5.13623 14.544 4.62753 14.9191 4.25245C15.2942 3.87738 15.8029 3.66667 16.3333 3.66667C16.8638 3.66667 17.3725 3.87738 17.7475 4.25245C18.1226 4.62753 18.3333 5.13623 18.3333 5.66667C18.3333 6.1971 18.1226 6.70581 17.7475 7.08088C17.3725 7.45595 16.8638 7.66667 16.3333 7.66667ZM9.66667 7.66667C9.13623 7.66667 8.62753 7.45595 8.25245 7.08088C7.87738 6.70581 7.66667 6.1971 7.66667 5.66667C7.66667 5.13623 7.87738 4.62753 8.25245 4.25245C8.62753 3.87738 9.13623 3.66667 9.66667 3.66667C10.1971 3.66667 10.7058 3.87738 11.0809 4.25245C11.456 4.62753 11.6667 5.13623 11.6667 5.66667C11.6667 6.1971 11.456 6.70581 11.0809 7.08088C10.7058 7.45595 10.1971 7.66667 9.66667 7.66667ZM5.66667 13C5.13623 13 4.62753 12.7893 4.25245 12.4142C3.87738 12.0391 3.66667 11.5304 3.66667 11C3.66667 10.4696 3.87738 9.96086 4.25245 9.58579C4.62753 9.21071 5.13623 9 5.66667 9C6.1971 9 6.70581 9.21071 7.08088 9.58579C7.45595 9.96086 7.66667 10.4696 7.66667 11C7.66667 11.5304 7.45595 12.0391 7.08088 12.4142C6.70581 12.7893 6.1971 13 5.66667 13ZM13 1C9.8174 1 6.76516 2.26428 4.51472 4.51472C2.26428 6.76516 1 9.8174 1 13C1 16.1826 2.26428 19.2348 4.51472 21.4853C6.76516 23.7357 9.8174 25 13 25C13.5304 25 14.0391 24.7893 14.4142 24.4142C14.7893 24.0391 15 23.5304 15 23C15 22.48 14.8 22.0133 14.48 21.6667C14.1733 21.3067 13.9733 20.84 13.9733 20.3333C13.9733 19.8029 14.184 19.2942 14.5591 18.9191C14.9342 18.544 15.4429 18.3333 15.9733 18.3333H18.3333C20.1014 18.3333 21.7971 17.631 23.0474 16.3807C24.2976 15.1305 25 13.4348 25 11.6667C25 5.77333 19.6267 1 13 1Z" fill="black"/>
</svg>
