<svg width="26" height="26" viewBox="0 0 26 26" fill="none" xmlns="http://www.w3.org/2000/svg">
<path d="M18.1527 16.0943H17.0686L16.6844 15.7238C18.0756 14.1102 18.8403 12.05 18.8388 9.91938C18.8388 8.1553 18.3157 6.43083 17.3356 4.96404C16.3555 3.49726 14.9625 2.35404 13.3327 1.67895C11.7029 1.00386 9.90949 0.827231 8.1793 1.17139C6.44911 1.51554 4.85983 2.36503 3.61243 3.61243C2.36503 4.85983 1.51554 6.44911 1.17139 8.1793C0.827231 9.90949 1.00386 11.7029 1.67895 13.3327C2.35404 14.9625 3.49726 16.3555 4.96404 17.3356C6.43083 18.3157 8.1553 18.8388 9.91938 18.8388C12.1286 18.8388 14.1595 18.0292 15.7238 16.6844L16.0943 17.0686V18.1527L22.9554 25L25 22.9554L18.1527 16.0943ZM9.91938 16.0943C6.50258 16.0943 3.74443 13.3362 3.74443 9.91938C3.74443 6.50258 6.50258 3.74443 9.91938 3.74443C13.3362 3.74443 16.0943 6.50258 16.0943 9.91938C16.0943 13.3362 13.3362 16.0943 9.91938 16.0943Z" fill="black"/>
</svg>
