<svg width="26" height="26" viewBox="0 0 26 26" fill="none" xmlns="http://www.w3.org/2000/svg">
<path fill-rule="evenodd" clip-rule="evenodd" d="M16.3074 5.74026C16.3074 7.26267 15.7026 8.72273 14.6261 9.79924C13.5496 10.8757 12.0895 11.4805 10.5671 11.4805C9.04469 11.4805 7.58463 10.8757 6.50812 9.79924C5.43162 8.72273 4.82684 7.26267 4.82684 5.74026C4.82684 4.21785 5.43162 2.75779 6.50812 1.68128C7.58463 0.604776 9.04469 0 10.5671 0C12.0895 0 13.5496 0.604776 14.6261 1.68128C15.7026 2.75779 16.3074 4.21785 16.3074 5.74026ZM10.5671 13.3939C12.6725 13.3939 14.62 14.0747 16.2003 15.2279C14.1712 16.4755 12.8182 18.7161 12.8182 21.2727C12.8182 22.2077 12.9991 23.1004 13.3279 23.9177H1.95671C1.70297 23.9177 1.45963 23.817 1.28021 23.6375C1.1008 23.4581 1 23.2148 1 22.961C1 20.4237 2.00796 17.9903 3.80214 16.1961C5.59632 14.4019 8.02975 13.3939 10.5671 13.3939ZM18.7074 22.4427C19.0264 22.753 19.459 22.9273 19.9102 22.9273C20.3613 22.9273 20.7939 22.753 21.1129 22.4427C21.4319 22.1324 21.6111 21.7115 21.6111 21.2727C21.6111 20.8339 21.4319 20.4131 21.1129 20.1028C20.7939 19.7925 20.3613 19.6182 19.9102 19.6182C19.459 19.6182 19.0264 19.7925 18.7074 20.1028C18.3884 20.4131 18.2092 20.8339 18.2092 21.2727C18.2092 21.7115 18.3884 22.1324 18.7074 22.4427ZM23.5551 21.2727C23.5551 21.4287 23.5405 21.58 23.5211 21.7313L24.5465 22.516C24.6388 22.5869 24.6631 22.7145 24.6048 22.8185L23.6328 24.4542C23.5745 24.5582 23.4433 24.596 23.3364 24.5582L22.1263 24.0807C21.8736 24.2698 21.6111 24.4258 21.305 24.5487L21.1251 25.8015C21.1057 25.9149 21.0036 26 20.8821 26H18.9382C18.8167 26 18.7146 25.9149 18.6952 25.8015L18.5154 24.5487C18.2092 24.4305 17.9468 24.2698 17.6941 24.0807L16.4839 24.5582C16.377 24.596 16.2458 24.5582 16.1875 24.4542L15.2155 22.8185C15.1523 22.7145 15.1815 22.5869 15.2738 22.516L16.2993 21.7313C16.2798 21.58 16.2652 21.4287 16.2652 21.2727C16.2652 21.1167 16.2798 20.9607 16.2993 20.8L15.2738 20.0295C15.1815 19.9585 15.1523 19.8309 15.2155 19.7269L16.1875 18.0913C16.2458 17.9873 16.377 17.9447 16.4839 17.9873L17.6941 18.46C17.9468 18.2756 18.2092 18.1149 18.5154 17.9967L18.6952 16.744C18.7146 16.6305 18.8167 16.5455 18.9382 16.5455H20.8821C20.9402 16.5453 20.9965 16.5652 21.041 16.6015C21.0854 16.6378 21.1153 16.6883 21.1251 16.744L21.305 17.9967C21.6111 18.1149 21.8736 18.2756 22.1263 18.46L23.3364 17.9873C23.4433 17.9447 23.5745 17.9873 23.6328 18.0913L24.6048 19.7269C24.6631 19.8309 24.6388 19.9585 24.5465 20.0295L23.5211 20.8C23.5405 20.9607 23.5551 21.1167 23.5551 21.2727Z" fill="black"/>
</svg>
