<svg width="26" height="26" viewBox="0 0 26 26" fill="none" xmlns="http://www.w3.org/2000/svg">
<path d="M25.9562 9.46612L19.5971 1.07934C19.5782 1.05474 19.5543 1.03487 19.5272 1.02116C19.5001 1.00744 19.4705 1.00021 19.4405 1H6.55951C6.5 1 6.44048 1.02975 6.40289 1.07934L0.0438463 9.46612C0.0144042 9.50544 -0.00108495 9.55439 5.9129e-05 9.6045C0.00120321 9.6546 0.0189084 9.70271 0.0501112 9.7405L12.8496 24.9306C12.8872 24.9769 12.9436 25 13 25C13.0564 25 13.1096 24.9736 13.1504 24.9306L25.9499 9.7405C25.9811 9.70271 25.9988 9.6546 25.9999 9.6045C26.0011 9.55439 25.9856 9.50544 25.9562 9.46612ZM17.1725 2.89752L18.2501 7.32397L14.0995 2.89752H17.1725ZM17.4294 8.79835H8.5706L13 4.07438L17.4294 8.79835ZM8.82747 2.89752H11.9005L7.74674 7.32397L8.82747 2.89752ZM7.1547 3.12893L5.77325 8.79835H2.85686L7.1547 3.12893ZM3.05734 10.4512H6.01445L9.95518 18.6397L3.05734 10.4512ZM13 21.3107L7.7718 10.4512H18.2251L13 21.3107ZM16.0417 18.6397L19.9855 10.4512H22.9427L16.0417 18.6397ZM20.2268 8.79835L18.8453 3.12893L23.1431 8.79835H20.2268Z" fill="black"/>
</svg>
