<svg width="26" height="26" viewBox="0 0 26 26" fill="none" xmlns="http://www.w3.org/2000/svg">
<path d="M18.232 15.4C18.328 14.608 18.4 13.816 18.4 13C18.4 12.184 18.328 11.392 18.232 10.6H22.288C22.48 11.368 22.6 12.172 22.6 13C22.6 13.828 22.48 14.632 22.288 15.4M16.108 22.072C16.828 20.74 17.38 19.3 17.764 17.8H21.304C20.1414 19.8019 18.2969 21.3184 16.108 22.072ZM15.808 15.4H10.192C10.072 14.608 10 13.816 10 13C10 12.184 10.072 11.38 10.192 10.6H15.808C15.916 11.38 16 12.184 16 13C16 13.816 15.916 14.608 15.808 15.4ZM13 22.552C12.004 21.112 11.2 19.516 10.708 17.8H15.292C14.8 19.516 13.996 21.112 13 22.552ZM8.2 8.2H4.696C5.84663 6.19266 7.68975 4.67378 9.88 3.928C9.16 5.26 8.62 6.7 8.2 8.2ZM4.696 17.8H8.2C8.62 19.3 9.16 20.74 9.88 22.072C7.69435 21.318 5.85382 19.8013 4.696 17.8ZM3.712 15.4C3.52 14.632 3.4 13.828 3.4 13C3.4 12.172 3.52 11.368 3.712 10.6H7.768C7.672 11.392 7.6 12.184 7.6 13C7.6 13.816 7.672 14.608 7.768 15.4M13 3.436C13.996 4.876 14.8 6.484 15.292 8.2H10.708C11.2 6.484 12.004 4.876 13 3.436ZM21.304 8.2H17.764C17.3884 6.71375 16.8323 5.27908 16.108 3.928C18.316 4.684 20.152 6.208 21.304 8.2ZM13 1C6.364 1 1 6.4 1 13C1 16.1826 2.26428 19.2348 4.51472 21.4853C5.62902 22.5996 6.95189 23.4835 8.4078 24.0866C9.86371 24.6896 11.4241 25 13 25C16.1826 25 19.2348 23.7357 21.4853 21.4853C23.7357 19.2348 25 16.1826 25 13C25 11.4241 24.6896 9.86371 24.0866 8.4078C23.4835 6.95189 22.5996 5.62902 21.4853 4.51472C20.371 3.40042 19.0481 2.5165 17.5922 1.91345C16.1363 1.31039 14.5759 1 13 1Z" fill="black"/>
</svg>
