<svg width="26" height="26" viewBox="0 0 26 26" fill="none" xmlns="http://www.w3.org/2000/svg">
<mask id="mask0_804_4174" style="mask-type:luminance" maskUnits="userSpaceOnUse" x="0" y="2" width="26" height="22">
<path fill-rule="evenodd" clip-rule="evenodd" d="M2.8 4C2.35817 4 2 4.35817 2 4.8V20.4C2 20.8418 2.35817 21.2 2.8 21.2H23.2C23.6418 21.2 24 20.8418 24 20.4V4.8C24 4.35817 23.6418 4 23.2 4H2.8ZM0 4.8C0 3.2536 1.2536 2 2.8 2H23.2C24.7464 2 26 3.2536 26 4.8V20.4C26 21.9464 24.7464 23.2 23.2 23.2H2.8C1.2536 23.2 0 21.9464 0 20.4V4.8Z" fill="white"/>
<path d="M1 4.8C1 4.32261 1.18964 3.86477 1.52721 3.52721C1.86477 3.18964 2.32261 3 2.8 3H23.2C23.6774 3 24.1352 3.18964 24.4728 3.52721C24.8104 3.86477 25 4.32261 25 4.8V10.2H1V4.8Z" fill="white"/>
<path fill-rule="evenodd" clip-rule="evenodd" d="M2.8 4C2.58783 4 2.38434 4.08429 2.23431 4.23431C2.08429 4.38434 2 4.58783 2 4.8V9.2H24V4.8C24 4.58783 23.9157 4.38434 23.7657 4.23431C23.6157 4.08429 23.4122 4 23.2 4H2.8ZM0.820101 2.8201C1.3452 2.295 2.05739 2 2.8 2H23.2C23.9426 2 24.6548 2.295 25.1799 2.8201C25.705 3.3452 26 4.05739 26 4.8V11.2H0V4.8C0 4.05739 0.294999 3.3452 0.820101 2.8201Z" fill="white"/>
<path d="M3.40078 6.5998C3.40078 5.93706 3.93804 5.3998 4.60078 5.3998C5.26352 5.3998 5.80078 5.93706 5.80078 6.5998C5.80078 7.26255 5.26352 7.7998 4.60078 7.7998C3.93804 7.7998 3.40078 7.26255 3.40078 6.5998Z" fill="black"/>
<path d="M7.00039 6.5998C7.00039 5.93706 7.53765 5.3998 8.20039 5.3998C8.86313 5.3998 9.40039 5.93706 9.40039 6.5998C9.40039 7.26255 8.86313 7.7998 8.20039 7.7998C7.53765 7.7998 7.00039 7.26255 7.00039 6.5998Z" fill="black"/>
</mask>
<g mask="url(#mask0_804_4174)">
<path d="M-1.40039 -1.7998H27.3996V27.0002H-1.40039V-1.7998Z" fill="black"/>
</g>
<path d="M2 11L24 21" stroke="black"/>
<path d="M24 11L2 21" stroke="black"/>
</svg>
