<svg width="26" height="26" viewBox="0 0 26 26" fill="none" xmlns="http://www.w3.org/2000/svg">
<g clip-path="url(#clip0_804_4205)">
<path d="M4.60417 0C2.05833 0 0 2.05833 0 4.60417V20.7458C0 23.2917 2.05833 25.35 4.60417 25.35H21.3958C23.9417 25.35 26 23.2917 26 20.7458V4.60417C26 2.05833 23.9417 0 21.3958 0H4.60417ZM19.8467 5.5575H22.0458C22.1 5.54667 22.1433 5.59 22.1542 5.63333V15.9683C22.1542 16.1633 22.165 16.38 22.1758 16.6183C22.1975 16.8458 22.2083 17.0625 22.2192 17.2467C22.2192 17.3225 22.1867 17.3875 22.1108 17.42C21.5475 17.6583 20.9517 17.8317 20.345 17.94C19.7925 18.0375 19.24 18.0917 18.6767 18.0917C17.875 18.1025 17.0733 17.94 16.3475 17.6042C15.665 17.29 15.1017 16.77 14.7117 16.1308C14.3108 15.47 14.1158 14.6467 14.1158 13.6608C14.1055 12.8516 14.3158 12.0549 14.7243 11.3563C15.1328 10.6577 15.7239 10.0837 16.4342 9.69583C17.1925 9.27333 18.1025 9.0675 19.175 9.0675C19.2292 9.0675 19.305 9.0675 19.4025 9.07833C19.5 9.08917 19.6083 9.08917 19.7383 9.1V5.67667C19.7383 5.60083 19.7708 5.5575 19.8467 5.5575ZM3.98667 6.5H6.44583C6.5 6.5 6.55417 6.51083 6.5975 6.52167C6.64083 6.54333 6.67333 6.57583 6.70583 6.61917C6.91167 7.085 7.15 7.55083 7.39917 8.01667C7.65917 8.4825 7.90833 8.9375 8.17917 9.3925C8.43917 9.8475 8.6775 10.3025 8.905 10.7683H8.92667C9.15417 10.2917 9.3925 9.82583 9.63083 9.37083C9.86917 8.91583 10.1183 8.46083 10.3675 8.00583C10.6167 7.55083 10.855 7.085 11.0933 6.64083C11.1042 6.5975 11.1258 6.55417 11.1583 6.5325C11.2015 6.50961 11.2511 6.50197 11.2992 6.51083H13.585C13.6392 6.5 13.6933 6.5325 13.7042 6.58667C13.715 6.5975 13.6933 6.64083 13.6717 6.6625L10.4217 12.025L13.8883 17.7125C13.91 17.7558 13.9208 17.7992 13.91 17.8425C13.8992 17.8858 13.8558 17.8533 13.7908 17.8642H11.31C11.1367 17.8642 11.0175 17.8533 10.9417 17.745C10.7142 17.29 10.4758 16.8458 10.2483 16.3908C10.0208 15.9467 9.77167 15.4917 9.51167 15.0258C9.25167 14.56 8.99167 14.0942 8.73167 13.6175H8.71C8.4825 14.0833 8.23333 14.5492 7.98417 15.015C7.735 15.4808 7.48583 15.9467 7.2475 16.4017C6.99833 16.8567 6.74917 17.3225 6.5 17.7667C6.45667 17.875 6.37 17.8858 6.25083 17.8858H3.8675C3.82417 17.8858 3.79167 17.9075 3.79167 17.8533C3.7869 17.833 3.78636 17.812 3.79009 17.7915C3.79382 17.771 3.80173 17.7515 3.81333 17.7342L7.1825 12.2092L3.9 6.65167C3.8675 6.60833 3.85667 6.565 3.87833 6.54333C3.9 6.51083 3.94333 6.5 3.98667 6.5ZM19.0883 11.0825C18.6658 11.0825 18.2433 11.1692 17.8642 11.3642C17.4958 11.5483 17.1817 11.8192 16.9433 12.1658C16.705 12.5125 16.5858 12.9783 16.5858 13.5417C16.575 13.9208 16.64 14.3 16.77 14.6575C16.8783 14.95 17.0408 15.21 17.2575 15.4267C17.4633 15.6217 17.7125 15.7733 17.9942 15.86C18.2867 15.9575 18.59 16.0008 18.8933 16.0008C19.0558 16.0008 19.2075 15.99 19.3483 15.9792C19.4892 15.99 19.6083 15.9683 19.7383 15.925V11.1583C19.5253 11.1079 19.3072 11.0824 19.0883 11.0825Z" fill="black"/>
</g>
<defs>
<clipPath id="clip0_804_4205">
<rect width="26" height="26" fill="white"/>
</clipPath>
</defs>
</svg>
