<?xml version="1.0" encoding="utf-8"?>
<!-- Generator: Adobe Illustrator 27.2.0, SVG Export Plug-In . SVG Version: 6.00 Build 0)  -->
<svg version="1.1" id="Layer_1" xmlns="http://www.w3.org/2000/svg" xmlns:xlink="http://www.w3.org/1999/xlink" x="0px" y="0px"
	 viewBox="0 0 889.3 143.8" style="enable-background:new 0 0 889.3 143.8;" xml:space="preserve">
<g>
	<path d="M841.6,83.3c0-14.7-0.5-28.7,0.2-42.5c0.5-10.9,2.7-21.7,3.8-32.7c0.3-2.5-1-5.4-1.4-8.1c-2.2,1.6-5.1,2.7-6.5,4.9
		c-18.2,27-36.3,54.2-54.6,81.2c-1.4,2.2-4.1,4.9-6.5,5.1c-23.2,2.2-46.3,4.1-69.1-3c-17.3-5.4-21.6-19.3-8.4-29.8
		c1.3-1,0.8-4,1.3-6c-2.4,0.2-5.6-0.6-7,0.5c-6.3,5.6-10.5,12.4-9.5,21.4c1.3,12.5,10.3,17.8,20.6,21.3c18.1,6.2,37,5.4,55.7,5.1
		c2.7,0,5.2,0,9.5,0c-15.7,15.2-31.9,25.9-51.2,31.2c-17.8,4.9-35.4,5.2-52-5.1c-2.4-1.4-5.9-1-8.7-1.4c1.4,2.7,2.2,6.5,4.4,8.1
		c11.7,8.1,25.2,10.3,39.2,9.4c30.1-1.9,53.9-16.5,75-36.8c2.7-2.7,5.9-6.2,9.2-6.8c15.5-2.7,31.2-4.3,47.6-6.5
		c0.5,4.3,0.6,8.2,1.3,12.1c1.6,10.6,3.2,21.3,5.4,31.7c0.5,2.4,4.1,4,6.3,6c0.3-2.7,1.7-5.7,1-8.1c-4.1-14-5.4-28.1-5.6-42.7
		c8.4-1,16.2-1.6,23.6-3c2.2-0.5,4-3,6-4.6c-2.4-1.1-4.8-3-7-2.9C856.8,81.5,849.3,82.5,841.6,83.3z M833.5,84.4
		c-14,1.9-27.3,3.6-41.6,5.6c14.3-21.3,27.9-41.6,41.6-61.9C833.5,47.1,833.5,65.5,833.5,84.4z"/>
	<path d="M138.6,98.3c-7.3,7.5-13.2,16.8-21.6,22.5c-20,13.6-42.8,17-66.6,13.5c-12.1-1.7-23.8-5.1-33.1-13.6
		C7,111,4,95.2,12.4,84.1c4.9-6.5,12.7-11.6,20.1-15.4c3.5-1.7,9.2,1,14,1.9c4.4,1,8.7,2.9,13,2.9c8.1,0,16.3-0.3,24.1-1.7
		c2.5-0.5,5.6-5.2,5.7-8.1c0.2-2.4-3.5-5.4-6-7.1c-2.1-1.4-5.1-1.7-7.6-1.7c-10.5,0.5-21.1,0.6-31.6,2.2c-5.1,0.8-7.9-0.5-10.9-4
		C22.6,40.3,27,22.7,43.5,14.3c13.8-7,28.5-7,43.3-3.3c11.1,2.7,20.3,8.4,25.9,19.2c1,1.7,3.8,2.5,5.7,3.8c0.5-2.5,2.1-6.2,1-7.5
		c-5.7-6.7-11.3-14.4-18.7-18.4c-17-9.8-35.8-9.7-54.4-3.8C22.9,11.6,9.7,37,28.6,60.6c-2.1,1-3.3,1.6-4.8,2.4
		C8.3,70.6-0.6,82.8,0,100.6c0.6,17.4,10.5,28.7,26.2,35.1c33.1,13,65.5,10.6,95.5-8.1c9.7-6,16.3-16.7,23.8-25.5
		c1.1-1.4-0.2-4.9-0.5-7.5C143.1,95.6,140.4,96.6,138.6,98.3z M53,62.5c9,0,18.1,0,27,0c0,0.8,0,1.6,0,2.4c-9,0-18.1,0-27.3,0
		C52.8,64.1,52.8,63.3,53,62.5z"/>
	<path d="M884.5,130.5c-2.1,0.5-4.8,3-5.1,4.9c-0.2,1.7,2.5,4,5.4,7.8c2.4-4.3,4.6-6.5,4.4-8.6C889.3,133.1,886,130.2,884.5,130.5z"
		/>
	<path d="M442.8,75.2c1.3,0,2.5,0,3.8,0c2.4-3.2,5.9-6,6.7-9.5c1.3-5.4-2.4-9.2-8.1-9.4s-9.5,3.5-8.7,8.9
		C437.1,68.8,440.6,72,442.8,75.2z M444.3,60.3c1.3-0.3,2.4,0.2,2.5,0.3c2.2,1.1,3.2,4.3,2.2,5.7c-1,1.6-4.8,2.2-8.6-0.2
		C440.6,63.1,442.2,60.7,444.3,60.3z"/>
	<path d="M627.5,109.6c-2.9,4.1-4.4,9.2-7.9,12.7c-3.8,4-9,6.5-13.6,9.7c-2.7-4.8-5.4-9.5-8.1-14.3c-0.2-0.2,0-0.5-0.2-0.8
		c-1.3-2.2-2.5-4.6-3.8-6.8c-1.6,2.1-3.3,4-4.8,6c-2.9,4.3-4.8,9.4-8.4,13c-3.8,3.6-8.4,2.9-10.9-2.4c-2.9-5.6-0.3-15.5,5.4-20.9
		c5.2-4.9,10.9-6.7,18.1-3.5c2.2,1,5.2-0.2,7.9-0.5c-1.7-2.4-2.9-5.6-5.1-6.8c-9.4-5.2-22-1.6-29.3,8.4c-4.3,5.9-7.1,13-12.1,18.4
		c-3.6,4.1-10,10.2-13.8,9.2c-7.3-1.6-4.4-9.8-4.4-15.7c0-0.3,0-0.5,0-0.8c0.2-7.1,2.5-15.7-6.5-19c-8.9-3.3-13.3,4.1-17.6,10
		c-4,5.6-7.5,11.3-11.4,17.6c0-9,0.5-16.8-0.3-24.6c-0.3-3-3.3-7-6-7.9c-2.2-0.8-6.8,1.6-8.6,3.8c-3.8,4.9-6,11.1-9.5,16.3
		c-4.8,7.1-9.4,14.6-15.4,20.8c-5.4,5.4-12.5,2.7-14.4-4.9c-0.8-3.5-1-7.3-0.8-10.9c0.2-6.3,1-12.7,0.8-18.9c0-2.2-2.1-4.6-3.2-6.8
		c-1.6,2.1-3.2,4.1-4.4,6.3c-0.5,0.8-0.5,2.1-0.3,3.2c0.5,12.5-6.5,21.4-15.2,29c-2.7,2.4-8.2,4.1-11.1,2.9c-2.9-1.3-5.1-6.3-5.4-10
		c-0.5-5.7,1-11.4,1.3-17.3c0.3-6.8-2.9-10.9-10.2-11.1c-2.1,0-4.1-0.3-6.2-0.3c0.5-0.6,1.1-1.1,1.6-1.7c-3.3-4.1-6.5-8.1-9.8-12.2
		c-3.3,4.4-7.8,8.2-9.8,13.2c-2.9,6.8,2.7,9,10.9,10c-6.5,10-11.3,19-17.8,26.6c-6.7,7.6-15.4,6.8-20.3,1.3c4.6-7,10-13.2,13.2-20.3
		c2.9-6.3-1.3-13.6-6.7-15.9c-6.5-2.7-13.8,0-17.6,6.7c-1.1,2.1-1.7,4.4-3,6.3c-4.6,7.3-9,14.7-14.3,21.6c-1.7,2.2-6,4-8.9,3.6
		c-7.9-1.1-13.8-15.9-11.6-23.3c5.2-16.7,10-33.6,13.6-50.8c1.4-6.5,2.7-8.9,9.5-8.6c12.1,0.6,24.3,0.3,36.5,0
		c1.7,0,3.3-2.2,5.1-3.3c-1.7-1.1-3.2-2.9-5.1-3.3c-1.9-0.6-4.1-0.2-6.3-0.2c-12.8,0-25.9,0-38.4,0c-1-3.3-1.6-5.9-2.5-8.2
		c-3.3-8.2-10.9-9.5-16.7-2.7c-1.4,1.7-2.1,4.4-3.6,6c-2.1,2.1-4.8,4.6-7.5,4.8c-8.4,0.6-16.8,0-25.4,0.3c-2.4,0.2-4.8,2.1-7,3
		c2.4,1.3,4.9,3.5,7.3,3.6c9.4,0.5,18.9,0.2,27.4,0.2c0,17.9-0.8,35.1,0.3,52c0.5,7.8,0.2,14.3-5.1,19.5c-4.4,4.4-10,10.8-15.1,10.6
		c-7.3-0.2-6.8-9-8.2-15.1c-0.5-2.2-2.5-4-3.8-5.9c-1.6,1.7-3.5,3.5-4.6,5.4c-2.5,4.1-4,9.2-7.3,12.7c-4.9,5.2-11.7,3-12.8-4
		c-1.4-7.8,1.4-14.6,7.3-19.8c5.2-4.4,11.1-5.4,17.6-1.9c1.7,1,4.6-0.2,7-0.3c-1.1-2.2-1.7-5.6-3.5-6.8c-8.4-5.9-21.6-3.2-29.2,5.9
		c-3.3,4-5.7,8.9-9,12.8c-5.2,6-10.3,12.7-16.8,17.1c-7.6,5.2-15.1,2.9-20.1-3.2c5.7-4.8,12.1-9,17-14.6c4.8-5.4,3.3-14.4-1.4-18.7
		c-4.6-4.1-12.8-4.4-18.2,0c-3.2,2.5-5.7,6-8.2,9.5c-2.1,2.9-3.6,6-5.4,9.2c-1.4-3-1.4-5.9-1.4-8.6c0.5-29.7,1-59.5,1.1-89.1
		c0-2.4-2.4-4.9-3.6-7.5c-1.4,2.4-3.8,4.8-4,7.3c-0.8,39.2-1.6,78.3-1.9,117.7c0,2.9,2.4,5.7,3.6,8.4c2.2-2.4,5.4-4.4,6.7-7.3
		c3.2-6.7,4.9-13.8,8.2-20.5c2.2-4.4,5.4-8.6,9-11.7c1.7-1.6,5.6-0.8,8.4-1.1c0.2,2.9,1.6,7,0.2,8.6c-3.3,3.8-7.6,7.1-12.2,9.4
		c-8.2,4.1-9.5,9.4-3,16.2c7,7.5,19.3,8.7,30,2.7c4.9-2.7,9.2-6.7,14.3-10.3c2.2,7.1,7,12.4,14.1,11.4c6-0.8,11.6-4.6,17.8-7.3
		c6.5,8.1,12.5,11.1,19.5,6.8c6.8-4.1,12.4-10.2,18.6-15.4c4,7.8,9,15.5,19.5,16.7c11.3,1.1,16-8.4,22.7-14.9
		c7.3,13.6,15.9,18.2,27.9,15.7c8.7-1.9,14.6-7.5,18.9-14.4c4.8-7.9,8.6-16.7,13-25.4c6-1.4,8.6,1.1,7.3,8.1
		c-0.8,4.4-1,8.9-1.1,13.3c-0.2,7.1,2.5,13,9,16.3c6.3,3.3,13,2.5,18.7-1.7c4.1-3.2,7.6-7.1,11.4-10.6c6,20.6,23,20.5,34.6,5.7
		c5.4-7,9.5-15.1,14.1-22.7c1.7-2.9,3.3-6,5.6-10c0.8,2.4,1.4,3,1.3,3.8c-0.6,8.9-1.9,17.8-1.9,26.6c0,3.3,2.4,6.8,3.6,10.2
		c3.3-1.9,7.8-3,9.8-5.9c5.1-7.3,8.9-15.5,13.6-23c1.9-3.2,4.9-5.6,7.5-8.2c0.6,0.3,1.4,0.6,2.1,0.8c0.2,3,0.5,5.9,0.6,8.9
		c0,4.9-0.6,10,0,14.9c1.6,12.2,11.6,16.8,21.9,10c3.6-2.4,6.8-5.6,10.2-8.2c-0.2,0.8-0.5,1.6-0.6,2.4c5.2,2.7,10.5,7.6,15.7,7.6
		c5.7,0,11.3-4.8,17.1-7.5c8.4,11.3,18.4,12.2,28.7,1c5.1-5.6,8.7-12.4,12.5-19c0.6-1.3-1.1-4-1.7-5.9
		C630.9,108,628.4,108.3,627.5,109.6z M300.4,31.9c1.7-0.5,3.2,0.3,3.5,0.5c3,1.4,4.3,5.7,3,7.8c-1.3,2.2-6.3,3-11.6-0.3
		C295.5,35.8,297.7,32.7,300.4,31.9z M293.8,49.3c4.9,0,7.5,0,10.8,0c0.2,17.1-4,32.8-10.8,48.1C293.8,81.5,293.8,65.7,293.8,49.3z
		 M338.8,120.4c1.9-6.8,3-12.4,5.1-17.3c0.6-1.4,4.4-2.2,6.7-1.9c1,0.2,2.2,4.1,1.7,5.9C351,113.1,347.8,118,338.8,120.4z
		 M385.9,92.9c-0.8,1-2.1,1.1-2.4,1.3c-2.4,0.3-5.1-1.6-5.1-3.3c-0.2-1.9,2.7-4.4,7.1-4.8C387.2,88.5,387.3,91.4,385.9,92.9z"/>
</g>
</svg>
