<?xml version="1.0" encoding="utf-8"?>
<!-- Generator: Adobe Illustrator 27.2.0, SVG Export Plug-In . SVG Version: 6.00 Build 0)  -->
<svg version="1.1" id="Layer_1" xmlns="http://www.w3.org/2000/svg" xmlns:xlink="http://www.w3.org/1999/xlink" x="0px" y="0px"
	 viewBox="0 0 26 26" style="enable-background:new 0 0 26 26;" xml:space="preserve">
<style type="text/css">
	.st0{fill-rule:evenodd;clip-rule:evenodd;fill:#FFFFFF;filter:url(#Adobe_OpacityMaskFilter);}
	.st1{fill:#FFFFFF;}
	.st2{fill-rule:evenodd;clip-rule:evenodd;fill:#FFFFFF;}
	.st3{mask:url(#mask0_664_12700_00000096027727303680037990000003622618124762643887_);}
</style>
<defs>
	<filter id="Adobe_OpacityMaskFilter" filterUnits="userSpaceOnUse" x="-0.3" y="-0.5" width="26.6" height="26.6">
		<feColorMatrix  type="matrix" values="1 0 0 0 0  0 1 0 0 0  0 0 1 0 0  0 0 0 1 0"/>
	</filter>
</defs>
<mask maskUnits="userSpaceOnUse" x="-0.3" y="-0.5" width="26.6" height="26.6" id="mask0_664_12700_00000096027727303680037990000003622618124762643887_">
	<path class="st0" d="M3.6,4.8c-0.4,0-0.7,0.3-0.7,0.7V20c0,0.4,0.3,0.7,0.7,0.7h18.8c0.4,0,0.7-0.3,0.7-0.7V5.6
		c0-0.4-0.3-0.7-0.7-0.7H3.6z M1,5.6C1,4.2,2.2,3,3.6,3h18.8C23.8,3,25,4.2,25,5.6V20c0,1.4-1.2,2.6-2.6,2.6H3.6
		C2.2,22.6,1,21.4,1,20V5.6z"/>
	<path class="st1" d="M1.9,5.6c0-0.4,0.2-0.9,0.5-1.2c0.3-0.3,0.7-0.5,1.2-0.5h18.8c0.4,0,0.9,0.2,1.2,0.5c0.3,0.3,0.5,0.7,0.5,1.2
		v5H1.9V5.6z"/>
	<path class="st2" d="M3.6,4.8c-0.2,0-0.4,0.1-0.5,0.2C2.9,5.2,2.8,5.4,2.8,5.6v4.1h20.3V5.6c0-0.2-0.1-0.4-0.2-0.5
		c-0.1-0.1-0.3-0.2-0.5-0.2H3.6z M1.8,3.8C2.2,3.3,2.9,3,3.6,3h18.8c0.7,0,1.3,0.3,1.8,0.8C24.7,4.2,25,4.9,25,5.6v5.9H1V5.6
		C1,4.9,1.3,4.2,1.8,3.8z"/>
	<path d="M4.1,7.2c0-0.6,0.5-1.1,1.1-1.1c0.6,0,1.1,0.5,1.1,1.1S5.9,8.4,5.2,8.4C4.6,8.4,4.1,7.9,4.1,7.2z"/>
	<path d="M7.5,7.2c0-0.6,0.5-1.1,1.1-1.1s1.1,0.5,1.1,1.1S9.2,8.4,8.6,8.4S7.5,7.9,7.5,7.2z"/>
</mask>
<g class="st3">
	<path d="M-0.3-0.5h26.6v26.6H-0.3V-0.5z"/>
</g>
<g>
	<path d="M9.9,18.5l1.7,1.1c0.3,0.2,0.7-0.1,0.6-0.5l-0.5-2l1.5-1.4c0.3-0.2,0.1-0.7-0.2-0.7l-2-0.2l-0.8-1.9
		c-0.1-0.3-0.6-0.3-0.8,0l-0.8,1.9l-2,0.2c-0.4,0-0.5,0.5-0.2,0.7L8,17.1l-0.5,2c-0.1,0.4,0.3,0.7,0.6,0.5L9.9,18.5z"/>
	<path d="M17.1,17.9l1.2,0.8c0.2,0.1,0.5-0.1,0.4-0.3l-0.3-1.5l1.1-1c0.2-0.2,0.1-0.5-0.2-0.5L18,15.2l-0.6-1.4
		c-0.1-0.3-0.4-0.3-0.5,0l-0.6,1.4l-1.4,0.1c-0.3,0-0.4,0.4-0.2,0.5l1.1,1l-0.3,1.5c-0.1,0.3,0.2,0.5,0.4,0.3L17.1,17.9z"/>
</g>
</svg>
