<svg width="26" height="26" viewBox="0 0 26 26" fill="none" xmlns="http://www.w3.org/2000/svg">
<path d="M14.7 22.6C14.7 22.1875 14.5531 21.8344 14.2594 21.5406C13.9656 21.2469 13.6125 21.1 13.2 21.1C12.7875 21.1 12.4344 21.2469 12.1406 21.5406C11.8469 21.8344 11.7 22.1875 11.7 22.6C11.7 23.0125 11.8469 23.3656 12.1406 23.6594C12.4344 23.9531 12.7875 24.1 13.2 24.1C13.6125 24.1 13.9656 23.9531 14.2594 23.6594C14.5531 23.3656 14.7 23.0125 14.7 22.6ZM18.6 19.6V6.4C18.6 6.2375 18.5406 6.09688 18.4219 5.97813C18.3031 5.85938 18.1625 5.8 18 5.8H8.4C8.2375 5.8 8.09688 5.85938 7.97813 5.97813C7.85938 6.09688 7.8 6.2375 7.8 6.4V19.6C7.8 19.7625 7.85938 19.9031 7.97813 20.0219C8.09688 20.1406 8.2375 20.2 8.4 20.2H18C18.1625 20.2 18.3031 20.1406 18.4219 20.0219C18.5406 19.9031 18.6 19.7625 18.6 19.6ZM15 3.7C15 3.5 14.9 3.4 14.7 3.4H11.7C11.5 3.4 11.4 3.5 11.4 3.7C11.4 3.9 11.5 4 11.7 4H14.7C14.9 4 15 3.9 15 3.7ZM20.4 3.4V22.6C20.4 23.25 20.1625 23.8125 19.6875 24.2875C19.2125 24.7625 18.65 25 18 25H8.4C7.75 25 7.1875 24.7625 6.7125 24.2875C6.2375 23.8125 6 23.25 6 22.6V3.4C6 2.75 6.2375 2.1875 6.7125 1.7125C7.1875 1.2375 7.75 1 8.4 1H18C18.65 1 19.2125 1.2375 19.6875 1.7125C20.1625 2.1875 20.4 2.75 20.4 3.4Z" fill="black"/>
</svg>
