<svg width="26" height="26" viewBox="0 0 26 26" fill="none" xmlns="http://www.w3.org/2000/svg">
<mask id="mask0_664_12700" style="mask-type:luminance" maskUnits="userSpaceOnUse" x="1" y="3" width="24" height="20">
<path fill-rule="evenodd" clip-rule="evenodd" d="M3.58462 4.84615C3.17677 4.84615 2.84615 5.17677 2.84615 5.58462V19.9846C2.84615 20.3925 3.17677 20.7231 3.58462 20.7231H22.4154C22.8232 20.7231 23.1538 20.3925 23.1538 19.9846V5.58462C23.1538 5.17677 22.8232 4.84615 22.4154 4.84615H3.58462ZM1 5.58462C1 4.15717 2.15717 3 3.58462 3H22.4154C23.8428 3 25 4.15717 25 5.58462V19.9846C25 21.4121 23.8428 22.5692 22.4154 22.5692H3.58462C2.15717 22.5692 1 21.4121 1 19.9846V5.58462Z" fill="white"/>
<path d="M1.92383 5.58439C1.92383 5.14372 2.09888 4.7211 2.41048 4.4095C2.72208 4.09791 3.1447 3.92285 3.58537 3.92285H22.4161C22.8568 3.92285 23.2794 4.09791 23.591 4.4095C23.9026 4.7211 24.0777 5.14372 24.0777 5.58439V10.569H1.92383V5.58439Z" fill="white"/>
<path fill-rule="evenodd" clip-rule="evenodd" d="M3.58462 4.84615C3.38876 4.84615 3.20093 4.92396 3.06244 5.06244C2.92396 5.20093 2.84615 5.38876 2.84615 5.58462V9.64615H23.1538V5.58462C23.1538 5.38876 23.076 5.20093 22.9376 5.06244C22.7991 4.92396 22.6112 4.84615 22.4154 4.84615H3.58462ZM1.75702 3.75702C2.24173 3.27231 2.89913 3 3.58462 3H22.4154C23.1009 3 23.7583 3.27231 24.243 3.75702C24.7277 4.24172 25 4.89913 25 5.58462V11.4923H1V5.58462C1 4.89913 1.27231 4.24173 1.75702 3.75702Z" fill="white"/>
<path d="M4.14008 7.24582C4.14008 6.63406 4.63601 6.13813 5.24778 6.13813C5.85954 6.13813 6.35547 6.63406 6.35547 7.24582C6.35547 7.85758 5.85954 8.35352 5.24778 8.35352C4.63601 8.35352 4.14008 7.85758 4.14008 7.24582Z" fill="black"/>
<path d="M7.46235 7.24582C7.46235 6.63406 7.95828 6.13813 8.57004 6.13813C9.1818 6.13813 9.67773 6.63406 9.67773 7.24582C9.67773 7.85758 9.1818 8.35352 8.57004 8.35352C7.95828 8.35352 7.46235 7.85758 7.46235 7.24582Z" fill="black"/>
</mask>
<g mask="url(#mask0_664_12700)">
<path d="M-0.292969 -0.507812H26.2916V26.0768H-0.292969V-0.507812Z" fill="black"/>
</g>
<rect x="11" y="15" width="4" height="5" fill="black"/>
<rect x="5" y="17" width="4" height="3" fill="black"/>
<rect x="17" y="13" width="4" height="7" fill="black"/>
</svg>
